<svg width="180" height="180" viewBox="0 0 180 180" fill="none" xmlns="http://www.w3.org/2000/svg">
  <style>
    @media (prefers-color-scheme: light) {
      .background { fill: black; }
      .foreground { fill: white; }
    }
    @media (prefers-color-scheme: dark) {
      .background { fill: white; }
      .foreground { fill: black; }
    }
  </style>
  <g clip-path="url(#clip0)">
    <rect class="background" width="180" height="180" rx="37" />
    <path class="foreground" d="M97.5 95.5h30v13H84.5V95.5h0.5V95h0zM90 43c-27.6 0-50 22.4-50 50s22.4 50 50 50c21.4 0 39.7-13.5 46.8-32.5h-16.4C114.2 123 102.8 130 90 130c-20.4 0-37-16.6-37-37s16.6-37 37-37c15 0 27.9 9 33.6 21.8H140C133.6 58.5 113.4 43 90 43z"/>
  </g>
  <defs>
    <clipPath id="clip0">
      <rect width="180" height="180" fill="white" />
    </clipPath>
  </defs>
</svg>